<svg xmlns="http://www.w3.org/2000/svg" viewBox="0 0 173.21 253.37"><defs><style>.cls-1{fill:#f1c40f;}.cls-2,.cls-7{fill:#2c3e50;}.cls-2,.cls-3,.cls-8{fill-rule:evenodd;}.cls-3{fill:#27ae60;}.cls-4{fill:#c0392b;}.cls-5,.cls-6,.cls-8{fill:#fff;}.cls-6{stroke:#c0392b;stroke-miterlimit:10;}.cls-9{font-size:30.28px;}.cls-10,.cls-9{font-family:BradleyHandITC, Bradley Hand ITC;}.cls-10{font-size:12.39px;}</style></defs><title>icon</title><g id="LOGO_wp_htaccess_optimize" data-name="LOGO wp htaccess optimize"><g id="Cadenas"><path class="cls-1" d="M120.55,12.67a4.6,4.6,0,0,1,9.2,0v3h3.34v-3a7.94,7.94,0,0,0-15.88,0v3h3.34Zm12.25,4.79H117.5a2.84,2.84,0,0,0-2.84,2.84v9.78a2.84,2.84,0,0,0,2.84,2.84h15.3a2.84,2.84,0,0,0,2.84-2.84V20.3A2.84,2.84,0,0,0,132.8,17.46Zm-6.63,8.68.27,2.34c0,.94-.35,1.3-1.3,1.3s-1.3-.35-1.3-1.3l.27-2.34a2.85,2.85,0,1,1,2.05,0Z" transform="translate(-59.56 -4.73)"/></g><g id="Feuille_02" data-name="Feuille 02"><path class="cls-2" d="M68.2,186.7H182.61a8.67,8.67,0,0,0,8.64-8.65V26a8.65,8.65,0,0,0-8.64-8.64H140.93L141.87,33H175.1v138.2H75.71V33h33.23l.93-15.55H68.2A8.67,8.67,0,0,0,59.56,26V178a8.68,8.68,0,0,0,8.64,8.65Z" transform="translate(-59.56 -4.73)"/><path class="cls-3" d="M92.61,93.21h65.61a3.55,3.55,0,0,1,3.53,3.55h0a3.56,3.56,0,0,1-3.53,3.55H92.61a3.57,3.57,0,0,1-3.55-3.55h0A3.56,3.56,0,0,1,92.61,93.21Z" transform="translate(-59.56 -4.73)"/><path class="cls-2" d="M92.61,73.84h65.61a3.56,3.56,0,0,1,3.53,3.55h0A3.56,3.56,0,0,1,158.22,81H92.61a3.56,3.56,0,0,1-3.55-3.55h0A3.56,3.56,0,0,1,92.61,73.84Z" transform="translate(-59.56 -4.73)"/><path class="cls-2" d="M92.61,54.73h65.61a3.56,3.56,0,0,1,3.53,3.55h0a3.56,3.56,0,0,1-3.53,3.55H92.61a3.56,3.56,0,0,1-3.55-3.55h0A3.57,3.57,0,0,1,92.61,54.73Z" transform="translate(-59.56 -4.73)"/></g><g id="Plume_-_copie" data-name="Plume - copie"><path class="cls-4" d="M159.09,97.17s12.41,4.52,27.17-3.94a5.22,5.22,0,0,0-1-1.1s-12.27,6.53-22.9,4.44A10.67,10.67,0,0,0,159.09,97.17Z" transform="translate(-59.56 -4.73)"/><path class="cls-4" d="M185.75,93.52s12.21,1.88,27.45-10c-4,.74-5.31.84-5.31.84A48.73,48.73,0,0,0,223.68,73c6.82-7.7,12.26-24.2,6.94-40.13a10.2,10.2,0,0,1-1.9,5s2.24-5.21-3.21-10.72a6.93,6.93,0,0,0-4.11-1.63s-.56,1.71-2.44.61c-3.29.61-5.06,9.59-5.06,9.59S212.38,49.5,209,55.22s-4.58,7-4.58,7,1.17,5.4-1,8.48c.08-3.32-1-4.58-1-4.58s-6,10.07-11.28,13.24-8.3,14.31-8.3,14.31Z" transform="translate(-59.56 -4.73)"/><path class="cls-5" d="M221.38,33.41s4.71,35.39-30.23,55.32C232,68.33,221.38,33.41,221.38,33.41Z" transform="translate(-59.56 -4.73)"/><path class="cls-6" d="M219.91,28.13c.05-.37.26-.42.45-.11L226,37.15c.2.32.08.46-.26.31l-3.14-1.32a1.14,1.14,0,0,0-1.12.21l-2.64,2.49c-.27.26-.46.17-.4-.21Z" transform="translate(-59.56 -4.73)"/></g><g id="Engrenages"><circle class="cls-7" cx="60.83" cy="127.72" r="11.06"/><path class="cls-7" d="M132.13,147.5a19.44,19.44,0,0,0,3.3-3.3l1.54.89a1.07,1.07,0,0,0,1.46-.39L140,142a1.06,1.06,0,0,0-.4-1.45l-1.53-.89a18.57,18.57,0,0,0,1.2-4.52h1.79a1.06,1.06,0,0,0,1.06-1.06v-3.17a1.06,1.06,0,0,0-1.06-1.06h-1.79a18.55,18.55,0,0,0-1.2-4.51l1.54-.89A1.05,1.05,0,0,0,140,123l-1.58-2.75a1.06,1.06,0,0,0-1.46-.38l-1.54.89a19.2,19.2,0,0,0-3.3-3.3l.89-1.55a1.06,1.06,0,0,0-.39-1.45l-2.75-1.59a1.06,1.06,0,0,0-1.46.39l-.88,1.54a18.92,18.92,0,0,0-4.52-1.2v-1.79a1.06,1.06,0,0,0-1.06-1.07H118.8a1.06,1.06,0,0,0-1.07,1.07v1.79a18.87,18.87,0,0,0-4.51,1.2l-.89-1.54a1.06,1.06,0,0,0-1.45-.39l-2.75,1.58a1.06,1.06,0,0,0-.39,1.45l.89,1.55a19,19,0,0,0-3.3,3.3l-1.55-.89a1.06,1.06,0,0,0-1.45.39L100.76,123a1.06,1.06,0,0,0,.38,1.45l1.54.89a18.81,18.81,0,0,0-1.2,4.51H99.7a1.06,1.06,0,0,0-1.07,1.06V134a1.06,1.06,0,0,0,1.07,1.06h1.79a18.74,18.74,0,0,0,1.2,4.52l-1.54.89a1.06,1.06,0,0,0-.38,1.45l1.59,2.75a1.06,1.06,0,0,0,1.45.39l1.55-.89a19.43,19.43,0,0,0,3.29,3.3l-.89,1.55a1.05,1.05,0,0,0,.39,1.45l2.75,1.59a1.07,1.07,0,0,0,1.45-.39l.89-1.54a19.12,19.12,0,0,0,4.51,1.2v1.79a1.06,1.06,0,0,0,1.07,1.06H122a1.06,1.06,0,0,0,1.06-1.06v-1.79a19.11,19.11,0,0,0,4.51-1.2l.89,1.54a1.07,1.07,0,0,0,1.46.39l2.75-1.59A1.07,1.07,0,0,0,133,149Zm-11.74-.1a14.94,14.94,0,1,1,14.94-14.94A14.94,14.94,0,0,1,120.39,147.39Z" transform="translate(-59.56 -4.73)"/><circle class="cls-7" cx="144.72" cy="154.72" r="5.54" transform="translate(-107.05 60.9) rotate(-22.05)"/><path class="cls-7" d="M155.16,154.85l-.89-.13a9.05,9.05,0,0,0-.29-2.32l.83-.34a.53.53,0,0,0,.3-.69l-.59-1.47a.53.53,0,0,0-.69-.29l-.84.34a9.27,9.27,0,0,0-1.41-1.87l.55-.7a.52.52,0,0,0-.09-.74l-1.25-1a.54.54,0,0,0-.75.09l-.55.71a9.44,9.44,0,0,0-2.16-.92l.13-.89a.53.53,0,0,0-.45-.6l-1.57-.22a.54.54,0,0,0-.61.45l-.12.88a9.51,9.51,0,0,0-2.32.3l-.34-.83a.52.52,0,0,0-.69-.3l-1.47.59a.54.54,0,0,0-.3.69l.33.84a9.54,9.54,0,0,0-1.87,1.4l-.7-.54a.53.53,0,0,0-.75.09l-1,1.25a.53.53,0,0,0,.09.75l.7.55a9.64,9.64,0,0,0-.91,2.15l-.89-.12a.54.54,0,0,0-.6.45l-.22,1.57a.53.53,0,0,0,.45.6l.88.12a9.85,9.85,0,0,0,.29,2.32l-.83.34a.53.53,0,0,0-.29.69l.59,1.47a.53.53,0,0,0,.69.29l.83-.33a9.66,9.66,0,0,0,1.41,1.87l-.55.7a.53.53,0,0,0,.09.75l1.25,1a.54.54,0,0,0,.75-.09l.54-.7a9.63,9.63,0,0,0,2.16.91l-.12.89a.52.52,0,0,0,.45.6l1.57.22a.54.54,0,0,0,.6-.45l.12-.88A9.64,9.64,0,0,0,147,164l.34.83a.53.53,0,0,0,.69.29l1.47-.59a.53.53,0,0,0,.29-.69l-.33-.83a9.81,9.81,0,0,0,1.87-1.41l.7.54a.52.52,0,0,0,.74-.09l1-1.25a.53.53,0,0,0-.09-.74l-.7-.55a9.81,9.81,0,0,0,.91-2.15l.89.12a.53.53,0,0,0,.6-.45l.22-1.58A.53.53,0,0,0,155.16,154.85Zm-7.63,6.81a7.48,7.48,0,1,1,4.12-9.74A7.48,7.48,0,0,1,147.52,161.65Z" transform="translate(-59.56 -4.73)"/></g><g id="Coche"><path class="cls-8" d="M119.11,133.16l4.86-4.86a.35.35,0,0,1,.49,0l1.36,1.36a.35.35,0,0,1,0,.49l-6.47,6.47h-.43l-.06,0L115,132.7a.35.35,0,0,1,0-.49l1.36-1.36a.35.35,0,0,1,.49,0Z" transform="translate(-59.56 -4.73)"/></g></g><g id="htaccess_optimize" data-name="htaccess optimize"><text class="cls-9" transform="translate(15.01 204.99)">htaccess<tspan x="-2.41" y="36.34">optimize</tspan></text></g><g id="wp"><text class="cls-10" transform="translate(60.09 219.45)">WP</text></g></svg>